# xmcd
#
# Track frame offsets:
# 150
# 12556
# 28849
# 42058
# 58600
# 76037
# 92920
# 106993
# 122275
# 134366
# 148183
# 163501
#
# Disc length: 2368 seconds
#
# Revision: 0
# Processed by: cddbd v1.5.1PL0 Copyright (c) Steve Scherf et al.
# Submitted via: Axialis_AX_CDPlayer 2.6
#
DISCID=97093e0c
DTITLE=Billy Dean - Let Them Be Little
DYEAR=1900
DGENRE=
TTITLE0=This Is The Life 
TTITLE1=Eyes
TTITLE2=Thank God I'm A Country Boy 
TTITLE3=I'm In Love With You 
TTITLE4=Slow Motion 
TTITLE5=Let Them Be Little 
TTITLE6=Good Love Gone Bad 
TTITLE7=Race You To The Bottom 
TTITLE8=Shelfer Street 
TTITLE9=Swing For The Fence 
TTITLE10=Somewhere In My Broken Heart
TTITLE11=Billy The Kid 
EXTD=Release Date: 03/29/05 
EXTT0=
EXTT1=
EXTT2=
EXTT3=
EXTT4=
EXTT5=
EXTT6=
EXTT7=
EXTT8=
EXTT9=
EXTT10=(bonus track) 
EXTT11=(bonus track) 
PLAYORDER=
